<svg width="1440" height="517" viewBox="0 0 1440 517" fill="none" xmlns="http://www.w3.org/2000/svg">
<path d="M91.838 381.282C91.838 381.282 704.47 -163.302 833.419 190.641C962.368 544.584 1575 0 1575 0V131.325C1575 131.325 772.107 651.011 835.365 349.793C898.624 48.5757 -42 496 -42 496L91.838 381.282Z" fill="#5A3DAC" fill-opacity="0.94"/>
<path d="M51 441.5C51 441.5 652 -102.5 815 232C978 566.5 1575 51 1575 51V185.5C1575 185.5 722.5 699.75 804 396C885.5 92.25 -67 517 -67 517L51 441.5Z" fill="black" fill-opacity="0.27"/>
</svg>
